<svg width="24" height="24" viewBox="0 0 24 24" fill="none" xmlns="http://www.w3.org/2000/svg">
<path fill-rule="evenodd" clip-rule="evenodd" d="M22 12C22 17.5228 17.5228 22 12 22C6.47715 22 2 17.5228 2 12C2 6.47715 6.47715 2 12 2C17.5228 2 22 6.47715 22 12ZM16 15.5C16 15.7761 15.7761 16 15.5 16H9.5C9.22386 16 9 15.7761 9 15.5C9 15.2239 9.22386 15 9.5 15H14.2929L8.14645 8.85355C7.95118 8.65829 7.95118 8.34171 8.14645 8.14645C8.34171 7.95118 8.65829 7.95118 8.85355 8.14645L15 14.2929V9.5C15 9.22386 15.2239 9 15.5 9C15.7761 9 16 9.22386 16 9.5V15.5Z" fill="black"/>
</svg>
