<svg width="24" height="24" viewBox="0 0 24 24" fill="none" xmlns="http://www.w3.org/2000/svg">
<path fill-rule="evenodd" clip-rule="evenodd" d="M12 2C17.5228 2 22 6.47715 22 12C22 17.5228 17.5228 22 12 22C6.47715 22 2 17.5228 2 12C2 6.47715 6.47715 2 12 2ZM13.3536 8.14645L16.8536 11.6464C17.0488 11.8417 17.0488 12.1583 16.8536 12.3536L13.3536 15.8536C13.1583 16.0488 12.8417 16.0488 12.6464 15.8536C12.4512 15.6583 12.4512 15.3417 12.6464 15.1464L15.2929 12.5H7.5C7.22386 12.5 7 12.2761 7 12C7 11.7239 7.22386 11.5 7.5 11.5H15.2929L12.6464 8.85355C12.4512 8.65829 12.4512 8.34171 12.6464 8.14645C12.8417 7.95118 13.1583 7.95118 13.3536 8.14645Z" fill="black"/>
</svg>
