<svg width="24" height="24" viewBox="0 0 24 24" fill="none" xmlns="http://www.w3.org/2000/svg">
<path fill-rule="evenodd" clip-rule="evenodd" d="M22 12C22 17.5228 17.5228 22 12 22C6.47715 22 2 17.5228 2 12C2 6.47715 6.47715 2 12 2C17.5228 2 22 6.47715 22 12ZM15.8536 13.3536L12.3536 16.8536C12.1583 17.0488 11.8417 17.0488 11.6464 16.8536L8.14645 13.3536C7.95118 13.1583 7.95118 12.8417 8.14645 12.6464C8.34171 12.4512 8.65829 12.4512 8.85355 12.6464L11.5 15.2929V7.5C11.5 7.22386 11.7239 7 12 7C12.2761 7 12.5 7.22386 12.5 7.5V15.2929L15.1464 12.6464C15.3417 12.4512 15.6583 12.4512 15.8536 12.6464C16.0488 12.8417 16.0488 13.1583 15.8536 13.3536Z" fill="black"/>
</svg>
