<svg width="24" height="24" viewBox="0 0 24 24" fill="none" xmlns="http://www.w3.org/2000/svg">
<path fill-rule="evenodd" clip-rule="evenodd" d="M2 12C2 6.47715 6.47715 2 12 2C17.5228 2 22 6.47715 22 12C22 17.5228 17.5228 22 12 22C6.47715 22 2 17.5228 2 12ZM8.14645 10.6464L11.6464 7.14645C11.8417 6.95118 12.1583 6.95118 12.3536 7.14645L15.8536 10.6464C16.0488 10.8417 16.0488 11.1583 15.8536 11.3536C15.6583 11.5488 15.3417 11.5488 15.1464 11.3536L12.5 8.70711V16.5C12.5 16.7761 12.2761 17 12 17C11.7239 17 11.5 16.7761 11.5 16.5V8.70711L8.85355 11.3536C8.65829 11.5488 8.34171 11.5488 8.14645 11.3536C7.95118 11.1583 7.95118 10.8417 8.14645 10.6464Z" fill="black"/>
</svg>
