<svg width="24" height="24" viewBox="0 0 24 24" fill="none" xmlns="http://www.w3.org/2000/svg">
<path fill-rule="evenodd" clip-rule="evenodd" d="M2 12C2 17.5228 6.47715 22 12 22C17.5228 22 22 17.5228 22 12C22 6.47715 17.5228 2 12 2C6.47715 2 2 6.47715 2 12ZM8 15.5C8 15.7761 8.22386 16 8.5 16H14.5C14.7761 16 15 15.7761 15 15.5C15 15.2239 14.7761 15 14.5 15H9.70711L15.8536 8.85355C16.0488 8.65829 16.0488 8.34171 15.8536 8.14645C15.6583 7.95118 15.3417 7.95118 15.1464 8.14645L9 14.2929V9.5C9 9.22386 8.77614 9 8.5 9C8.22386 9 8 9.22386 8 9.5V15.5Z" fill="black"/>
</svg>
