<svg width="24" height="24" viewBox="0 0 24 24" fill="none" xmlns="http://www.w3.org/2000/svg">
<path fill-rule="evenodd" clip-rule="evenodd" d="M22 12C22 6.47715 17.5228 2 12 2C6.47715 2 2 6.47715 2 12C2 17.5228 6.47715 22 12 22C17.5228 22 22 17.5228 22 12ZM16 8.5C16 8.22386 15.7761 8 15.5 8H9.5C9.22386 8 9 8.22386 9 8.5C9 8.77614 9.22386 9 9.5 9H14.2929L8.14645 15.1464C7.95118 15.3417 7.95118 15.6583 8.14645 15.8536C8.34171 16.0488 8.65829 16.0488 8.85355 15.8536L15 9.70711V14.5C15 14.7761 15.2239 15 15.5 15C15.7761 15 16 14.7761 16 14.5V8.5Z" fill="black"/>
</svg>
