<svg width="24" height="24" viewBox="0 0 24 24" fill="none" xmlns="http://www.w3.org/2000/svg">
<path fill-rule="evenodd" clip-rule="evenodd" d="M12 22C6.47715 22 2 17.5228 2 12C2 6.47715 6.47715 2 12 2C17.5228 2 22 6.47715 22 12C22 17.5228 17.5228 22 12 22ZM10.6464 15.8536L7.14645 12.3536C6.95118 12.1583 6.95118 11.8417 7.14645 11.6464L10.6464 8.14645C10.8417 7.95118 11.1583 7.95118 11.3536 8.14645C11.5488 8.34171 11.5488 8.65829 11.3536 8.85355L8.70711 11.5H16.5C16.7761 11.5 17 11.7239 17 12C17 12.2761 16.7761 12.5 16.5 12.5H8.70711L11.3536 15.1464C11.5488 15.3417 11.5488 15.6583 11.3536 15.8536C11.1583 16.0488 10.8417 16.0488 10.6464 15.8536Z" fill="black"/>
</svg>
