<svg width="24" height="24" viewBox="0 0 24 24" fill="none" xmlns="http://www.w3.org/2000/svg">
<path d="M15.5 3.5H8.5C6.84315 3.5 5.5 4.84315 5.5 6.5V17.5C5.5 19.1569 6.84315 20.5 8.5 20.5H15.5C17.1569 20.5 18.5 19.1569 18.5 17.5V6.5C18.5 4.84315 17.1569 3.5 15.5 3.5Z" stroke="black" stroke-linecap="round" stroke-linejoin="round"/>
<path d="M5.5 18.5C3.84315 18.5 2.5 17.1569 2.5 15.5V8.5C2.5 6.84315 3.84315 5.5 5.5 5.5" stroke="black" stroke-linecap="round" stroke-linejoin="round"/>
<path d="M18.5 18.5C20.1569 18.5 21.5 17.1569 21.5 15.5V8.5C21.5 6.84315 20.1569 5.5 18.5 5.5" stroke="black" stroke-linecap="round" stroke-linejoin="round"/>
</svg>
