<svg width="24" height="24" viewBox="0 0 24 24" fill="none" xmlns="http://www.w3.org/2000/svg">
<path fill-rule="evenodd" clip-rule="evenodd" d="M5.335 5.00382C5.89595 3.81929 7.1023 3 8.5 3H15.5C16.8977 3 18.104 3.81929 18.665 5.00382C20.5214 5.08997 22 6.62231 22 8.5V15.5C22 17.3777 20.5214 18.91 18.665 18.9962C18.104 20.1807 16.8977 21 15.5 21H8.5C7.1023 21 5.89596 20.1807 5.33501 18.9962C3.47862 18.91 2 17.3777 2 15.5V8.5C2 6.62231 3.47861 5.08997 5.335 5.00382ZM5.02941 6.04422C3.87367 6.26436 3 7.28015 3 8.5V15.5C3 16.7198 3.87367 17.7356 5.02941 17.9558C5.01001 17.8066 5 17.6545 5 17.5V6.5C5 6.34553 5.01001 6.1934 5.02941 6.04422ZM18.9706 17.9558C20.1263 17.7356 21 16.7198 21 15.5V8.5C21 7.28015 20.1263 6.26437 18.9706 6.04423C18.99 6.19341 19 6.34553 19 6.5V17.5C19 17.6545 18.99 17.8066 18.9706 17.9558Z" fill="black"/>
</svg>
