<svg width="24" height="24" viewBox="0 0 24 24" fill="none" xmlns="http://www.w3.org/2000/svg">
<path d="M5.5 4C3.567 4 2 5.567 2 7.5V16.5C2 18.433 3.567 20 5.5 20H12.5C12.7761 20 13 19.7761 13 19.5C13 19.2239 12.7761 19 12.5 19H5.5C4.11929 19 3 17.8807 3 16.5V12.5H21.5C21.7761 12.5 22 12.2761 22 12V7.5C22 5.567 20.433 4 18.5 4H5.5Z" fill="black"/>
<path d="M20 16.5C20 16.2239 19.7761 16 19.5 16C19.2239 16 19 16.2239 19 16.5V19H16.5C16.2239 19 16 19.2239 16 19.5C16 19.7761 16.2239 20 16.5 20H19V22.5C19 22.7761 19.2239 23 19.5 23C19.7761 23 20 22.7761 20 22.5V20H22.5C22.7761 20 23 19.7761 23 19.5C23 19.2239 22.7761 19 22.5 19H20V16.5Z" fill="black"/>
</svg>
