<svg width="24" height="24" viewBox="0 0 24 24" fill="none" xmlns="http://www.w3.org/2000/svg">
<path d="M12 19.5V20C12.2761 20 12.5 19.7761 12.5 19.5H12ZM21 11.5C21 11.7761 21.2239 12 21.5 12C21.7761 12 22 11.7761 22 11.5H21.5H21ZM12 4.5V4V4.5ZM18.5 4.5V5V4.5ZM2.5 16.5H3V7.5H2.5H2V16.5H2.5ZM12 19.5V19H5.5V19.5V20H12V19.5ZM21.5 7.5H21V11.5H21.5H22V7.5H21.5ZM5.5 4.5V5H12V4.5V4H5.5V4.5ZM12 4.5V5L18.5 5V4.5V4L12 4V4.5ZM12 19.5H12.5V4.5H12H11.5V19.5H12ZM21.5 7.5H22C22 5.567 20.433 4 18.5 4V4.5V5C19.8807 5 21 6.11929 21 7.5H21.5ZM2.5 7.5H3C3 6.11929 4.11929 5 5.5 5V4.5V4C3.567 4 2 5.567 2 7.5H2.5ZM2.5 16.5H2C2 18.433 3.567 20 5.5 20V19.5V19C4.11929 19 3 17.8807 3 16.5H2.5Z" fill="black"/>
<path d="M16.8536 14.1464C16.6583 13.9512 16.3417 13.9512 16.1464 14.1464C15.9512 14.3417 15.9512 14.6583 16.1464 14.8536L16.5 14.5L16.8536 14.1464ZM21.1464 19.8536C21.3417 20.0488 21.6583 20.0488 21.8536 19.8536C22.0488 19.6583 22.0488 19.3417 21.8536 19.1464L21.5 19.5L21.1464 19.8536ZM16.1464 19.1464C15.9512 19.3417 15.9512 19.6583 16.1464 19.8536C16.3417 20.0488 16.6583 20.0488 16.8536 19.8536L16.5 19.5L16.1464 19.1464ZM21.8536 14.8536C22.0488 14.6583 22.0488 14.3417 21.8536 14.1464C21.6583 13.9512 21.3417 13.9512 21.1464 14.1464L21.5 14.5L21.8536 14.8536ZM16.5 14.5L16.1464 14.8536L18.6464 17.3536L19 17L19.3536 16.6464L16.8536 14.1464L16.5 14.5ZM19 17L18.6464 17.3536L21.1464 19.8536L21.5 19.5L21.8536 19.1464L19.3536 16.6464L19 17ZM16.5 19.5L16.8536 19.8536L19.3536 17.3536L19 17L18.6464 16.6464L16.1464 19.1464L16.5 19.5ZM19 17L19.3536 17.3536L21.8536 14.8536L21.5 14.5L21.1464 14.1464L18.6464 16.6464L19 17Z" fill="black"/>
</svg>
