<svg width="24" height="24" viewBox="0 0 24 24" fill="none" xmlns="http://www.w3.org/2000/svg">
<path d="M18.5 5L12.5 5V19.5C12.5 19.7761 12.2761 20 12 20H5.5C3.567 20 2 18.433 2 16.5V7.5C2 5.567 3.567 4 5.5 4H18.5C20.433 4 22 5.567 22 7.5V11.5C22 11.7761 21.7761 12 21.5 12C21.2239 12 21 11.7761 21 11.5V7.5C21 6.11929 19.8807 5 18.5 5Z" fill="black"/>
<path d="M16.8536 14.1464C16.6583 13.9512 16.3417 13.9512 16.1464 14.1464C15.9512 14.3417 15.9512 14.6583 16.1464 14.8536L18.2929 17L16.1464 19.1464C15.9512 19.3417 15.9512 19.6583 16.1464 19.8536C16.3417 20.0488 16.6583 20.0488 16.8536 19.8536L19 17.7071L21.1464 19.8536C21.3417 20.0488 21.6583 20.0488 21.8536 19.8536C22.0488 19.6583 22.0488 19.3417 21.8536 19.1464L19.7071 17L21.8536 14.8536C22.0488 14.6583 22.0488 14.3417 21.8536 14.1464C21.6583 13.9512 21.3417 13.9512 21.1464 14.1464L19 16.2929L16.8536 14.1464Z" fill="black"/>
</svg>
