<svg width="24" height="24" viewBox="0 0 24 24" fill="none" xmlns="http://www.w3.org/2000/svg">
<path d="M5 4C3.34315 4 2 5.34315 2 7V13C2 14.6569 3.34315 16 5 16C6.65685 16 8 14.6569 8 13V7C8 5.34315 6.65685 4 5 4Z" fill="black"/>
<path d="M12 4C10.3431 4 9 5.34315 9 7V17C9 18.6569 10.3431 20 12 20C13.6569 20 15 18.6569 15 17V7C15 5.34315 13.6569 4 12 4Z" fill="black"/>
<path d="M19 4C17.3431 4 16 5.34315 16 7V11C16 12.6569 17.3431 14 19 14C20.6569 14 22 12.6569 22 11V7C22 5.34315 20.6569 4 19 4Z" fill="black"/>
</svg>
