<svg width="24" height="24" viewBox="0 0 24 24" fill="none" xmlns="http://www.w3.org/2000/svg">
<path d="M7.96934 12L2.76536 14.7641C2.41155 14.9521 2.41155 15.4707 2.76536 15.6586L11.7738 20.4435C11.9156 20.5188 12.0844 20.5188 12.2262 20.4435L21.2346 15.6586C21.5885 15.4707 21.5884 14.9521 21.2346 14.7641L16.0307 12M7.96934 12L2.76536 9.23588C2.41155 9.04795 2.41155 8.52932 2.76536 8.34139L11.7738 3.5565C11.9156 3.48117 12.0844 3.48117 12.2262 3.5565L21.2346 8.34139C21.5884 8.52932 21.5885 9.04795 21.2346 9.23588L16.0307 12M7.96934 12L11.7738 14.0208C11.9156 14.0961 12.0844 14.0961 12.2262 14.0208L16.0307 12" stroke="black" stroke-linecap="square" stroke-linejoin="round"/>
</svg>
