<svg width="24" height="24" viewBox="0 0 24 24" fill="none" xmlns="http://www.w3.org/2000/svg">
<path fill-rule="evenodd" clip-rule="evenodd" d="M11.5964 3.13025C11.8526 3.01778 12.1442 3.01778 12.4004 3.13025L21.4066 7.08419C22.2039 7.43425 22.2039 8.56542 21.4066 8.91548L12.4004 12.8694C12.1442 12.9819 11.8526 12.9819 11.5964 12.8694L2.5902 8.91548C1.79285 8.56542 1.79285 7.43424 2.5902 7.08419L11.5964 3.13025Z" fill="black"/>
<path fill-rule="evenodd" clip-rule="evenodd" d="M2.04618 11.7858C2.16439 11.5363 2.46253 11.4298 2.71209 11.548L11.998 15.9466L21.284 11.548C21.5336 11.4298 21.8317 11.5363 21.9499 11.7858C22.0681 12.0354 21.9617 12.3335 21.7121 12.4517L12.4261 16.8504C12.1552 16.9787 11.8409 16.9787 11.57 16.8504L2.284 12.4517C2.03444 12.3335 1.92797 12.0354 2.04618 11.7858Z" fill="black"/>
<path fill-rule="evenodd" clip-rule="evenodd" d="M2.04618 15.7858C2.16439 15.5363 2.46253 15.4298 2.71209 15.548L11.998 19.9466L21.284 15.548C21.5336 15.4298 21.8317 15.5363 21.9499 15.7858C22.0681 16.0354 21.9617 16.3335 21.7121 16.4517L12.4261 20.8504C12.1552 20.9787 11.8409 20.9787 11.57 20.8504L2.284 16.4517C2.03444 16.3335 1.92797 16.0354 2.04618 15.7858Z" fill="black"/>
</svg>
