<svg width="24" height="24" viewBox="0 0 24 24" fill="none" xmlns="http://www.w3.org/2000/svg">
<path d="M6.5 3H7V21H6.5C4.567 21 3 19.433 3 17.5V6.5C3 4.567 4.567 3 6.5 3Z" fill="black"/>
<path fill-rule="evenodd" clip-rule="evenodd" d="M17.5 21H8V3H17.5C19.433 3 21 4.567 21 6.5V17.5C21 19.433 19.433 21 17.5 21ZM15.8536 9.85355C16.0488 9.65829 16.0488 9.34171 15.8536 9.14645C15.6583 8.95118 15.3417 8.95118 15.1464 9.14645L12.6464 11.6464C12.4512 11.8417 12.4512 12.1583 12.6464 12.3536L15.1464 14.8536C15.3417 15.0488 15.6583 15.0488 15.8536 14.8536C16.0488 14.6583 16.0488 14.3417 15.8536 14.1464L13.7071 12L15.8536 9.85355Z" fill="black"/>
</svg>
