<svg width="24" height="24" viewBox="0 0 24 24" fill="none" xmlns="http://www.w3.org/2000/svg">
<path fill-rule="evenodd" clip-rule="evenodd" d="M5.5 4C3.567 4 2 5.567 2 7.5V13.5C2 15.274 3.31984 16.7398 5.03114 16.9689C5.26025 18.6802 6.72599 20 8.5 20H18.5C20.433 20 22 18.433 22 16.5V10.5C22 8.72599 20.6802 7.26025 18.9689 7.03114C18.7398 5.31984 17.274 4 15.5 4H5.5ZM5 15.95V10.5C5 8.567 6.567 7 8.5 7H17.95C17.7184 5.85888 16.7095 5 15.5 5H5.5C4.11929 5 3 6.11929 3 7.5V13.5C3 14.7095 3.85888 15.7184 5 15.95ZM10.5 14C10.2239 14 10 13.7761 10 13.5C10 13.2239 10.2239 13 10.5 13H13V10.5C13 10.2239 13.2239 10 13.5 10C13.7761 10 14 10.2239 14 10.5V13H16.5C16.7761 13 17 13.2239 17 13.5C17 13.7761 16.7761 14 16.5 14H14V16.5C14 16.7761 13.7761 17 13.5 17C13.2239 17 13 16.7761 13 16.5V14H10.5Z" fill="black"/>
</svg>
