<svg width="24" height="24" viewBox="0 0 24 24" fill="none" xmlns="http://www.w3.org/2000/svg">
<path fill-rule="evenodd" clip-rule="evenodd" d="M2 7.5C2 5.567 3.567 4 5.5 4H18.5C20.433 4 22 5.567 22 7.5V16.5C22 18.433 20.433 20 18.5 20H5.5C3.567 20 2 18.433 2 16.5V7.5ZM12.5 8.5C12.5 8.22386 12.2761 8 12 8C11.7239 8 11.5 8.22386 11.5 8.5V11.5H8.5C8.22386 11.5 8 11.7239 8 12C8 12.2761 8.22386 12.5 8.5 12.5H11.5V15.5C11.5 15.7761 11.7239 16 12 16C12.2761 16 12.5 15.7761 12.5 15.5V12.5H15.5C15.7761 12.5 16 12.2761 16 12C16 11.7239 15.7761 11.5 15.5 11.5H12.5V8.5Z" fill="black"/>
</svg>
