<svg width="24" height="24" viewBox="0 0 24 24" fill="none" xmlns="http://www.w3.org/2000/svg">
<path fill-rule="evenodd" clip-rule="evenodd" d="M4 5.5C4 3.567 5.567 2 7.5 2H13.5C15.274 2 16.7398 3.31984 16.9689 5.03114C18.6802 5.26025 20 6.72599 20 8.5V18.5C20 20.433 18.433 22 16.5 22H10.5C8.72599 22 7.26025 20.6802 7.03114 18.9689C5.31984 18.7398 4 17.274 4 15.5V5.5ZM15.95 5H10.5C8.567 5 7 6.567 7 8.5V17.95C5.85888 17.7184 5 16.7095 5 15.5V5.5C5 4.11929 6.11929 3 7.5 3H13.5C14.7095 3 15.7184 3.85888 15.95 5ZM14 10.5C14 10.2239 13.7761 10 13.5 10C13.2239 10 13 10.2239 13 10.5V13H10.5C10.2239 13 10 13.2239 10 13.5C10 13.7761 10.2239 14 10.5 14H13V16.5C13 16.7761 13.2239 17 13.5 17C13.7761 17 14 16.7761 14 16.5V14H16.5C16.7761 14 17 13.7761 17 13.5C17 13.2239 16.7761 13 16.5 13H14V10.5Z" fill="black"/>
</svg>
