<svg width="24" height="24" viewBox="0 0 24 24" fill="none" xmlns="http://www.w3.org/2000/svg">
<path d="M5.5 4C3.567 4 2 5.567 2 7.5V16.5C2 18.433 3.567 20 5.5 20L12.5 20C12.7761 20 13 19.7761 13 19.5C13 19.2239 12.7761 19 12.5 19L5.5 19C4.11929 19 3 17.8807 3 16.5V12.5H21.5C21.7761 12.5 22 12.2761 22 12V7.5C22 5.567 20.433 4 18.5 4H5.5Z" fill="black"/>
<path d="M16.8536 16.1464C16.6583 15.9512 16.3417 15.9512 16.1464 16.1464C15.9512 16.3417 15.9512 16.6583 16.1464 16.8536L18.2929 19L16.1464 21.1464C15.9512 21.3417 15.9512 21.6583 16.1464 21.8536C16.3417 22.0488 16.6583 22.0488 16.8536 21.8536L19 19.7071L21.1464 21.8536C21.3417 22.0488 21.6583 22.0488 21.8536 21.8536C22.0488 21.6583 22.0488 21.3417 21.8536 21.1464L19.7071 19L21.8536 16.8536C22.0488 16.6583 22.0488 16.3417 21.8536 16.1464C21.6583 15.9512 21.3417 15.9512 21.1464 16.1464L19 18.2929L16.8536 16.1464Z" fill="black"/>
</svg>
