<svg width="24" height="24" viewBox="0 0 24 24" fill="none" xmlns="http://www.w3.org/2000/svg">
<path d="M9.5 7C9.5 5.61929 10.6193 4.5 12 4.5C13.3807 4.5 14.5 5.61929 14.5 7V17C14.5 18.3807 13.3807 19.5 12 19.5C10.6193 19.5 9.5 18.3807 9.5 17V7Z" stroke="black" stroke-linejoin="round"/>
<path d="M2.5 7C2.5 5.61929 3.61929 4.5 5 4.5C6.38071 4.5 7.5 5.61929 7.5 7V13C7.5 14.3807 6.38071 15.5 5 15.5C3.61929 15.5 2.5 14.3807 2.5 13V7Z" stroke="black" stroke-linejoin="round"/>
<path d="M16.5 7C16.5 5.61929 17.6193 4.5 19 4.5C20.3807 4.5 21.5 5.61929 21.5 7V11C21.5 12.3807 20.3807 13.5 19 13.5C17.6193 13.5 16.5 12.3807 16.5 11V7Z" stroke="black" stroke-linejoin="round"/>
</svg>
