<svg width="24" height="24" viewBox="0 0 24 24" fill="none" xmlns="http://www.w3.org/2000/svg">
<path d="M5.9621 12.5L2.53081 14.3225C1.82306 14.6985 1.82306 15.7243 2.53081 16.1002L11.5393 20.8851C11.8278 21.0383 12.1722 21.0383 12.4607 20.8851L21.4692 16.1002C22.1769 15.7243 22.1769 14.6985 21.4692 14.3225L18.0379 12.5L12.4607 15.4623C12.1722 15.6156 11.8278 15.6156 11.5393 15.4623L5.9621 12.5Z" fill="black"/>
<path d="M12.4607 3.11493C12.1722 2.96169 11.8278 2.96169 11.5393 3.11493L2.53081 7.89982C1.82306 8.27574 1.82307 9.30153 2.53081 9.67745L11.5393 14.4623C11.8278 14.6156 12.1722 14.6156 12.4607 14.4623L21.4692 9.67745C22.1769 9.30153 22.1769 8.27574 21.4692 7.89982L12.4607 3.11493Z" fill="black"/>
</svg>
