<svg width="24" height="24" viewBox="0 0 24 24" fill="none" xmlns="http://www.w3.org/2000/svg">
<path fill-rule="evenodd" clip-rule="evenodd" d="M11.5964 3.13025C11.8526 3.01778 12.1442 3.01778 12.4004 3.13025L21.4066 7.08419C22.2039 7.43425 22.2039 8.56542 21.4066 8.91548L12.4004 12.8694C12.1442 12.9819 11.8526 12.9819 11.5964 12.8694L2.5902 8.91548C1.79285 8.56542 1.79285 7.43424 2.5902 7.08419L11.5964 3.13025ZM11.9984 4.0459L2.99219 7.99983L11.9984 11.9538L21.0046 7.99983L11.9984 4.0459Z" fill="black"/>
<path fill-rule="evenodd" clip-rule="evenodd" d="M2.04651 11.7858C2.16472 11.5362 2.46286 11.4298 2.71242 11.548L11.9984 15.9466L21.2843 11.548C21.5339 11.4298 21.832 11.5362 21.9502 11.7858C22.0685 12.0354 21.962 12.3335 21.7124 12.4517L12.4265 16.8503C12.1555 16.9787 11.8412 16.9787 11.5703 16.8503L2.28433 12.4517C2.03477 12.3335 1.92829 12.0354 2.04651 11.7858Z" fill="black"/>
<path fill-rule="evenodd" clip-rule="evenodd" d="M2.04651 15.7858C2.16472 15.5362 2.46286 15.4298 2.71242 15.548L11.9984 19.9466L21.2843 15.548C21.5339 15.4298 21.832 15.5362 21.9502 15.7858C22.0685 16.0354 21.962 16.3335 21.7124 16.4517L12.4265 20.8503C12.1555 20.9787 11.8412 20.9787 11.5703 20.8503L2.28433 16.4517C2.03477 16.3335 1.92829 16.0354 2.04651 15.7858Z" fill="black"/>
</svg>
