<svg width="24" height="24" viewBox="0 0 24 24" fill="none" xmlns="http://www.w3.org/2000/svg">
<path fill-rule="evenodd" clip-rule="evenodd" d="M6 4C4.89543 4 4 4.89543 4 6C4 6.27614 3.77614 6.5 3.5 6.5C3.22386 6.5 3 6.27614 3 6C3 4.34315 4.34315 3 6 3C6.27614 3 6.5 3.22386 6.5 3.5C6.5 3.77614 6.27614 4 6 4ZM9.5 3.5C9.5 3.22386 9.72386 3 10 3H14C14.2761 3 14.5 3.22386 14.5 3.5C14.5 3.77614 14.2761 4 14 4H10C9.72386 4 9.5 3.77614 9.5 3.5ZM17.5 3.5C17.5 3.22386 17.7239 3 18 3C19.6569 3 21 4.34315 21 6C21 6.27614 20.7761 6.5 20.5 6.5C20.2239 6.5 20 6.27614 20 6C20 4.89543 19.1046 4 18 4C17.7239 4 17.5 3.77614 17.5 3.5ZM3.5 9.5C3.77614 9.5 4 9.72386 4 10V14C4 14.2761 3.77614 14.5 3.5 14.5C3.22386 14.5 3 14.2761 3 14V10C3 9.72386 3.22386 9.5 3.5 9.5ZM20.5 9.5C20.7761 9.5 21 9.72386 21 10V14C21 14.2761 20.7761 14.5 20.5 14.5C20.2239 14.5 20 14.2761 20 14V10C20 9.72386 20.2239 9.5 20.5 9.5ZM3.5 17.5C3.77614 17.5 4 17.7239 4 18C4 19.1046 4.89543 20 6 20C6.27614 20 6.5 20.2239 6.5 20.5C6.5 20.7761 6.27614 21 6 21C4.34315 21 3 19.6569 3 18C3 17.7239 3.22386 17.5 3.5 17.5ZM20.5 17.5C20.7761 17.5 21 17.7239 21 18C21 19.6569 19.6569 21 18 21C17.7239 21 17.5 20.7761 17.5 20.5C17.5 20.2239 17.7239 20 18 20C19.1046 20 20 19.1046 20 18C20 17.7239 20.2239 17.5 20.5 17.5ZM9.5 20.5C9.5 20.2239 9.72386 20 10 20H14C14.2761 20 14.5 20.2239 14.5 20.5C14.5 20.7761 14.2761 21 14 21H10C9.72386 21 9.5 20.7761 9.5 20.5Z" fill="black"/>
</svg>
