<svg width="24" height="24" viewBox="0 0 24 24" fill="none" xmlns="http://www.w3.org/2000/svg">
<path fill-rule="evenodd" clip-rule="evenodd" d="M8 20H18.5C20.433 20 22 18.433 22 16.5V7.5C22 5.567 20.433 4 18.5 4H8V20ZM15.6036 9.14645C15.7988 9.34171 15.7988 9.65829 15.6036 9.85355L13.4571 12L15.6036 14.1464C15.7988 14.3417 15.7988 14.6583 15.6036 14.8536C15.4083 15.0488 15.0917 15.0488 14.8964 14.8536L12.3964 12.3536C12.2012 12.1583 12.2012 11.8417 12.3964 11.6464L14.8964 9.14645C15.0917 8.95118 15.4083 8.95118 15.6036 9.14645Z" fill="black"/>
<path d="M7 4H5.5C3.567 4 2 5.567 2 7.5V16.5C2 18.433 3.567 20 5.5 20H7V4Z" fill="black"/>
</svg>
